<?xml version="1.0" encoding="utf-8"?>
<!-- Generator: Adobe Illustrator 17.0.0, SVG Export Plug-In . SVG Version: 6.00 Build 0)  -->
<!DOCTYPE svg PUBLIC "-//W3C//DTD SVG 1.1//EN" "http://www.w3.org/Graphics/SVG/1.1/DTD/svg11.dtd">
<svg version="1.1" id="Capa_1" xmlns="http://www.w3.org/2000/svg" xmlns:xlink="http://www.w3.org/1999/xlink" x="0px" y="0px"
	 width="100px" height="100px" viewBox="0 0 100 100" enable-background="new 0 0 100 100" xml:space="preserve">
<g>
	<g>
		<path fill="#FFFFFF" d="M99.125,22.731c-0.742-0.913-1.855-1.442-3.031-1.442H25.339l-0.29-2.663l-0.01-0.086
			C23.652,7.971,14.567,0,3.906,0C1.749,0,0,1.749,0,3.906s1.749,3.906,3.906,3.906c6.739,0,12.485,5.029,13.381,11.705
			l4.643,42.656c-4.061,1.843-6.892,5.936-6.892,10.678c0,0.033,0,0.065,0.001,0.098c-0.001,0.032-0.001,0.065-0.001,0.098
			c0,6.462,5.257,11.719,11.719,11.719h1.589c-0.397,1.165-0.613,2.413-0.613,3.711c0,6.354,5.169,11.523,11.523,11.523
			s11.523-5.17,11.523-11.523c0-1.298-0.216-2.546-0.613-3.711h16.851c-0.397,1.165-0.613,2.413-0.613,3.711
			C66.406,94.83,71.576,100,77.93,100c6.354,0,11.523-5.17,11.523-11.523S84.284,76.953,77.93,76.953H26.758
			c-2.154,0-3.906-1.752-3.906-3.906c0-0.033,0-0.065-0.001-0.098c0.001-0.032,0.001-0.065,0.001-0.098
			c0-2.154,1.752-3.906,3.906-3.906h49.869c6.934,0,13.298-4.29,16.212-10.93c0.867-1.975-0.031-4.28-2.007-5.147
			c-1.975-0.867-4.28,0.031-5.147,2.007c-1.643,3.743-5.283,6.258-9.058,6.258H29.676l-3.487-32.031h65.099l-1.911,9.163
			c-0.44,2.112,0.914,4.181,3.026,4.621c0.269,0.056,0.537,0.083,0.802,0.083c1.811,0,3.436-1.266,3.82-3.109l2.892-13.867
			C100.158,24.842,99.867,23.644,99.125,22.731z M77.93,84.766c2.046,0,3.711,1.665,3.711,3.711s-1.665,3.711-3.711,3.711
			s-3.711-1.665-3.711-3.711S75.883,84.766,77.93,84.766z M39.258,84.766c2.046,0,3.711,1.665,3.711,3.711
			c0,2.046-1.665,3.711-3.711,3.711s-3.711-1.665-3.711-3.711S37.212,84.766,39.258,84.766z"/>
	</g>
</g>
</svg>
